<?xml version="1.0" encoding="UTF-8"?>
<svg width="24" height="24" viewBox="0 0 24 24" fill="none" xmlns="http://www.w3.org/2000/svg">
  <path d="M21.7 2.3C21.3 1.9 20.7 1.9 20.3 2.3L2.3 20.3C1.9 20.7 1.9 21.3 2.3 21.7C2.5 21.9 2.7 22 3 22C3.3 22 3.5 21.9 3.7 21.7L21.7 3.7C22.1 3.3 22.1 2.7 21.7 2.3Z" fill="#1890FF"/>
  <path d="M22 12C22 6.5 17.5 2 12 2C6.5 2 2 6.5 2 12C2 17.5 6.5 22 12 22C17.5 22 22 17.5 22 12ZM4 12C4 7.6 7.6 4 12 4C16.4 4 20 7.6 20 12C20 16.4 16.4 20 12 20C7.6 20 4 16.4 4 12Z" fill="#1890FF"/>
</svg>