<?xml version="1.0" encoding="UTF-8"?>
<svg width="24" height="24" viewBox="0 0 24 24" fill="none" xmlns="http://www.w3.org/2000/svg">
  <path d="M12 1L3 5V11C3 16.5 6.8 21.7 12 23C17.2 21.7 21 16.5 21 11V5L12 1ZM19 11C19 15.5 16 19.9 12 21.3C8 19.9 5 15.5 5 11V6.3L12 3.2L19 6.3V11Z" fill="#1890FF"/>
  <path d="M12 12C13.1 12 14 11.1 14 10C14 8.9 13.1 8 12 8C10.9 8 10 8.9 10 10C10 11.1 10.9 12 12 12Z" fill="#1890FF"/>
  <path d="M12 13C10.3 13 9 14.3 9 16V17H15V16C15 14.3 13.7 13 12 13Z" fill="#1890FF"/>
</svg>